<svg width="776" height="494" viewBox="0 0 776 494" fill="none" xmlns="http://www.w3.org/2000/svg">
<circle cx="382.1" cy="194.477" r="113.977" stroke="#E84B3B" stroke-width="15"/>
<circle cx="121.477" cy="194.477" r="113.977" stroke="#D98795" stroke-width="15"/>
<circle cx="251.788" cy="304.91" r="113.977" stroke="#72AFC1" stroke-width="15"/>
<circle cx="514.62" cy="304.91" r="113.977" stroke="#FFBB00" stroke-width="15"/>
<circle cx="642.723" cy="194.477" r="113.977" stroke="#378A7B" stroke-width="15"/>
<path d="M91.5354 10.32L85.2714 27H82.1034L75.8154 10.32H78.7434L83.6874 24.192L88.6554 10.32H91.5354ZM105.943 20.064C105.943 20.56 105.911 21.008 105.847 21.408H95.7434C95.8234 22.464 96.2154 23.312 96.9194 23.952C97.6234 24.592 98.4874 24.912 99.5114 24.912C100.983 24.912 102.023 24.296 102.631 23.064H105.583C105.183 24.28 104.455 25.28 103.399 26.064C102.359 26.832 101.063 27.216 99.5114 27.216C98.2474 27.216 97.1114 26.936 96.1034 26.376C95.1114 25.8 94.3274 25 93.7514 23.976C93.1914 22.936 92.9114 21.736 92.9114 20.376C92.9114 19.016 93.1834 17.824 93.7274 16.8C94.2874 15.76 95.0634 14.96 96.0554 14.4C97.0634 13.84 98.2154 13.56 99.5114 13.56C100.759 13.56 101.871 13.832 102.847 14.376C103.823 14.92 104.583 15.688 105.127 16.68C105.671 17.656 105.943 18.784 105.943 20.064ZM103.087 19.2C103.071 18.192 102.711 17.384 102.007 16.776C101.303 16.168 100.431 15.864 99.3914 15.864C98.4474 15.864 97.6394 16.168 96.9674 16.776C96.2954 17.368 95.8954 18.176 95.7674 19.2H103.087ZM115.308 13.56C116.348 13.56 117.276 13.776 118.092 14.208C118.924 14.64 119.572 15.28 120.036 16.128C120.5 16.976 120.732 18 120.732 19.2V27H118.02V19.608C118.02 18.424 117.724 17.52 117.132 16.896C116.54 16.256 115.732 15.936 114.708 15.936C113.684 15.936 112.868 16.256 112.26 16.896C111.668 17.52 111.372 18.424 111.372 19.608V27H108.636V13.776H111.372V15.288C111.82 14.744 112.388 14.32 113.076 14.016C113.78 13.712 114.524 13.56 115.308 13.56ZM136.198 13.776V27H133.462V25.44C133.03 25.984 132.462 26.416 131.758 26.736C131.07 27.04 130.334 27.192 129.55 27.192C128.51 27.192 127.574 26.976 126.742 26.544C125.926 26.112 125.278 25.472 124.798 24.624C124.334 23.776 124.102 22.752 124.102 21.552V13.776H126.814V21.144C126.814 22.328 127.11 23.24 127.702 23.88C128.294 24.504 129.102 24.816 130.126 24.816C131.15 24.816 131.958 24.504 132.55 23.88C133.158 23.24 133.462 22.328 133.462 21.144V13.776H136.198ZM151.928 20.064C151.928 20.56 151.896 21.008 151.832 21.408H141.728C141.808 22.464 142.2 23.312 142.904 23.952C143.608 24.592 144.472 24.912 145.496 24.912C146.968 24.912 148.008 24.296 148.616 23.064H151.568C151.168 24.28 150.44 25.28 149.384 26.064C148.344 26.832 147.048 27.216 145.496 27.216C144.232 27.216 143.096 26.936 142.088 26.376C141.096 25.8 140.312 25 139.736 23.976C139.176 22.936 138.896 21.736 138.896 20.376C138.896 19.016 139.168 17.824 139.712 16.8C140.272 15.76 141.048 14.96 142.04 14.4C143.048 13.84 144.2 13.56 145.496 13.56C146.744 13.56 147.856 13.832 148.832 14.376C149.808 14.92 150.568 15.688 151.112 16.68C151.656 17.656 151.928 18.784 151.928 20.064ZM149.072 19.2C149.056 18.192 148.696 17.384 147.992 16.776C147.288 16.168 146.416 15.864 145.376 15.864C144.432 15.864 143.624 16.168 142.952 16.776C142.28 17.368 141.88 18.176 141.752 19.2H149.072ZM159.42 27.216C158.38 27.216 157.444 27.032 156.612 26.664C155.796 26.28 155.148 25.768 154.668 25.128C154.188 24.472 153.932 23.744 153.9 22.944H156.732C156.78 23.504 157.044 23.976 157.524 24.36C158.02 24.728 158.636 24.912 159.372 24.912C160.14 24.912 160.732 24.768 161.148 24.48C161.58 24.176 161.796 23.792 161.796 23.328C161.796 22.832 161.556 22.464 161.076 22.224C160.612 21.984 159.868 21.72 158.844 21.432C157.852 21.16 157.044 20.896 156.42 20.64C155.796 20.384 155.252 19.992 154.788 19.464C154.34 18.936 154.116 18.24 154.116 17.376C154.116 16.672 154.324 16.032 154.74 15.456C155.156 14.864 155.748 14.4 156.516 14.064C157.3 13.728 158.196 13.56 159.204 13.56C160.708 13.56 161.916 13.944 162.828 14.712C163.756 15.464 164.252 16.496 164.316 17.808H161.58C161.532 17.216 161.292 16.744 160.86 16.392C160.428 16.04 159.844 15.864 159.108 15.864C158.388 15.864 157.836 16 157.452 16.272C157.068 16.544 156.876 16.904 156.876 17.352C156.876 17.704 157.004 18 157.26 18.24C157.516 18.48 157.828 18.672 158.196 18.816C158.564 18.944 159.108 19.112 159.828 19.32C160.788 19.576 161.572 19.84 162.18 20.112C162.804 20.368 163.34 20.752 163.788 21.264C164.236 21.776 164.468 22.456 164.484 23.304C164.484 24.056 164.276 24.728 163.86 25.32C163.444 25.912 162.852 26.376 162.084 26.712C161.332 27.048 160.444 27.216 159.42 27.216Z" fill="#D98795"/>
<path d="M345.709 10.32V12.552H341.269V27H338.533V12.552H334.069V10.32H345.709ZM360.456 13.776V27H357.72V25.44C357.288 25.984 356.72 26.416 356.016 26.736C355.328 27.04 354.592 27.192 353.808 27.192C352.768 27.192 351.832 26.976 351 26.544C350.184 26.112 349.536 25.472 349.056 24.624C348.592 23.776 348.36 22.752 348.36 21.552V13.776H351.072V21.144C351.072 22.328 351.368 23.24 351.96 23.88C352.552 24.504 353.36 24.816 354.384 24.816C355.408 24.816 356.216 24.504 356.808 23.88C357.416 23.24 357.72 22.328 357.72 21.144V13.776H360.456ZM366.802 15.696C367.202 15.024 367.73 14.504 368.386 14.136C369.058 13.752 369.85 13.56 370.762 13.56V16.392H370.066C368.994 16.392 368.178 16.664 367.618 17.208C367.074 17.752 366.802 18.696 366.802 20.04V27H364.066V13.776H366.802V15.696ZM374.669 12.024C374.173 12.024 373.757 11.856 373.421 11.52C373.085 11.184 372.917 10.768 372.917 10.272C372.917 9.776 373.085 9.36 373.421 9.024C373.757 8.688 374.173 8.52 374.669 8.52C375.149 8.52 375.557 8.688 375.893 9.024C376.229 9.36 376.397 9.776 376.397 10.272C376.397 10.768 376.229 11.184 375.893 11.52C375.557 11.856 375.149 12.024 374.669 12.024ZM376.013 13.776V27H373.277V13.776H376.013ZM384.405 27.216C383.365 27.216 382.429 27.032 381.597 26.664C380.781 26.28 380.133 25.768 379.653 25.128C379.173 24.472 378.917 23.744 378.885 22.944H381.717C381.765 23.504 382.029 23.976 382.509 24.36C383.005 24.728 383.621 24.912 384.357 24.912C385.125 24.912 385.717 24.768 386.133 24.48C386.565 24.176 386.781 23.792 386.781 23.328C386.781 22.832 386.541 22.464 386.061 22.224C385.597 21.984 384.853 21.72 383.829 21.432C382.837 21.16 382.029 20.896 381.405 20.64C380.781 20.384 380.237 19.992 379.773 19.464C379.325 18.936 379.101 18.24 379.101 17.376C379.101 16.672 379.309 16.032 379.725 15.456C380.141 14.864 380.733 14.4 381.501 14.064C382.285 13.728 383.181 13.56 384.189 13.56C385.693 13.56 386.901 13.944 387.813 14.712C388.741 15.464 389.237 16.496 389.301 17.808H386.565C386.517 17.216 386.277 16.744 385.845 16.392C385.413 16.04 384.829 15.864 384.093 15.864C383.373 15.864 382.821 16 382.437 16.272C382.053 16.544 381.861 16.904 381.861 17.352C381.861 17.704 381.989 18 382.245 18.24C382.501 18.48 382.813 18.672 383.181 18.816C383.549 18.944 384.093 19.112 384.813 19.32C385.773 19.576 386.557 19.84 387.165 20.112C387.789 20.368 388.325 20.752 388.773 21.264C389.221 21.776 389.453 22.456 389.469 23.304C389.469 24.056 389.261 24.728 388.845 25.32C388.429 25.912 387.837 26.376 387.069 26.712C386.317 27.048 385.429 27.216 384.405 27.216ZM408.433 13.56C409.473 13.56 410.401 13.776 411.217 14.208C412.049 14.64 412.697 15.28 413.161 16.128C413.641 16.976 413.881 18 413.881 19.2V27H411.169V19.608C411.169 18.424 410.873 17.52 410.281 16.896C409.689 16.256 408.881 15.936 407.857 15.936C406.833 15.936 406.017 16.256 405.409 16.896C404.817 17.52 404.521 18.424 404.521 19.608V27H401.809V19.608C401.809 18.424 401.513 17.52 400.921 16.896C400.329 16.256 399.521 15.936 398.497 15.936C397.473 15.936 396.657 16.256 396.049 16.896C395.457 17.52 395.161 18.424 395.161 19.608V27H392.425V13.776H395.161V15.288C395.609 14.744 396.177 14.32 396.865 14.016C397.553 13.712 398.289 13.56 399.073 13.56C400.129 13.56 401.073 13.784 401.905 14.232C402.737 14.68 403.377 15.328 403.825 16.176C404.225 15.376 404.849 14.744 405.697 14.28C406.545 13.8 407.457 13.56 408.433 13.56ZM423.099 27.216C421.851 27.216 420.723 26.936 419.715 26.376C418.707 25.8 417.915 25 417.339 23.976C416.763 22.936 416.475 21.736 416.475 20.376C416.475 19.032 416.771 17.84 417.363 16.8C417.955 15.76 418.763 14.96 419.787 14.4C420.811 13.84 421.955 13.56 423.219 13.56C424.483 13.56 425.627 13.84 426.651 14.4C427.675 14.96 428.483 15.76 429.075 16.8C429.667 17.84 429.963 19.032 429.963 20.376C429.963 21.72 429.659 22.912 429.051 23.952C428.443 24.992 427.611 25.8 426.555 26.376C425.515 26.936 424.363 27.216 423.099 27.216ZM423.099 24.84C423.803 24.84 424.459 24.672 425.067 24.336C425.691 24 426.195 23.496 426.579 22.824C426.963 22.152 427.155 21.336 427.155 20.376C427.155 19.416 426.971 18.608 426.603 17.952C426.235 17.28 425.747 16.776 425.139 16.44C424.531 16.104 423.875 15.936 423.171 15.936C422.467 15.936 421.811 16.104 421.203 16.44C420.611 16.776 420.139 17.28 419.787 17.952C419.435 18.608 419.259 19.416 419.259 20.376C419.259 21.8 419.619 22.904 420.339 23.688C421.075 24.456 421.995 24.84 423.099 24.84Z" fill="#E84B3B"/>
<path d="M465.208 479.592H458.224L457.024 483H454.168L460.144 466.296H463.312L469.288 483H466.408L465.208 479.592ZM464.44 477.36L461.728 469.608L458.992 477.36H464.44ZM483.862 469.776V483H481.126V481.44C480.694 481.984 480.126 482.416 479.422 482.736C478.734 483.04 477.998 483.192 477.214 483.192C476.174 483.192 475.238 482.976 474.406 482.544C473.59 482.112 472.942 481.472 472.462 480.624C471.998 479.776 471.766 478.752 471.766 477.552V469.776H474.478V477.144C474.478 478.328 474.774 479.24 475.366 479.88C475.958 480.504 476.766 480.816 477.79 480.816C478.814 480.816 479.622 480.504 480.214 479.88C480.822 479.24 481.126 478.328 481.126 477.144V469.776H483.862ZM486.56 476.328C486.56 475 486.832 473.824 487.376 472.8C487.936 471.776 488.688 470.984 489.632 470.424C490.592 469.848 491.656 469.56 492.824 469.56C493.688 469.56 494.536 469.752 495.368 470.136C496.216 470.504 496.888 471 497.384 471.624V465.24H500.144V483H497.384V481.008C496.936 481.648 496.312 482.176 495.512 482.592C494.728 483.008 493.824 483.216 492.8 483.216C491.648 483.216 490.592 482.928 489.632 482.352C488.688 481.76 487.936 480.944 487.376 479.904C486.832 478.848 486.56 477.656 486.56 476.328ZM497.384 476.376C497.384 475.464 497.192 474.672 496.808 474C496.44 473.328 495.952 472.816 495.344 472.464C494.736 472.112 494.08 471.936 493.376 471.936C492.672 471.936 492.016 472.112 491.408 472.464C490.8 472.8 490.304 473.304 489.92 473.976C489.552 474.632 489.368 475.416 489.368 476.328C489.368 477.24 489.552 478.04 489.92 478.728C490.304 479.416 490.8 479.944 491.408 480.312C492.032 480.664 492.688 480.84 493.376 480.84C494.08 480.84 494.736 480.664 495.344 480.312C495.952 479.96 496.44 479.448 496.808 478.776C497.192 478.088 497.384 477.288 497.384 476.376ZM505.13 468.024C504.634 468.024 504.218 467.856 503.882 467.52C503.546 467.184 503.378 466.768 503.378 466.272C503.378 465.776 503.546 465.36 503.882 465.024C504.218 464.688 504.634 464.52 505.13 464.52C505.61 464.52 506.018 464.688 506.354 465.024C506.69 465.36 506.858 465.776 506.858 466.272C506.858 466.768 506.69 467.184 506.354 467.52C506.018 467.856 505.61 468.024 505.13 468.024ZM506.474 469.776V483H503.738V469.776H506.474ZM522.186 476.064C522.186 476.56 522.154 477.008 522.09 477.408H511.986C512.066 478.464 512.458 479.312 513.162 479.952C513.866 480.592 514.73 480.912 515.754 480.912C517.226 480.912 518.266 480.296 518.874 479.064H521.826C521.426 480.28 520.698 481.28 519.642 482.064C518.602 482.832 517.306 483.216 515.754 483.216C514.49 483.216 513.354 482.936 512.346 482.376C511.354 481.8 510.57 481 509.994 479.976C509.434 478.936 509.154 477.736 509.154 476.376C509.154 475.016 509.426 473.824 509.97 472.8C510.53 471.76 511.306 470.96 512.298 470.4C513.306 469.84 514.458 469.56 515.754 469.56C517.002 469.56 518.114 469.832 519.09 470.376C520.066 470.92 520.826 471.688 521.37 472.68C521.914 473.656 522.186 474.784 522.186 476.064ZM519.33 475.2C519.314 474.192 518.954 473.384 518.25 472.776C517.546 472.168 516.674 471.864 515.634 471.864C514.69 471.864 513.882 472.168 513.21 472.776C512.538 473.368 512.138 474.176 512.01 475.2H519.33ZM531.55 469.56C532.59 469.56 533.518 469.776 534.334 470.208C535.166 470.64 535.814 471.28 536.278 472.128C536.742 472.976 536.974 474 536.974 475.2V483H534.262V475.608C534.262 474.424 533.966 473.52 533.374 472.896C532.782 472.256 531.974 471.936 530.95 471.936C529.926 471.936 529.11 472.256 528.502 472.896C527.91 473.52 527.614 474.424 527.614 475.608V483H524.878V469.776H527.614V471.288C528.062 470.744 528.63 470.32 529.318 470.016C530.022 469.712 530.766 469.56 531.55 469.56ZM539.552 476.376C539.552 475.016 539.824 473.824 540.368 472.8C540.928 471.76 541.696 470.96 542.672 470.4C543.648 469.84 544.768 469.56 546.032 469.56C547.632 469.56 548.952 469.944 549.992 470.712C551.048 471.464 551.76 472.544 552.128 473.952H549.176C548.936 473.296 548.552 472.784 548.024 472.416C547.496 472.048 546.832 471.864 546.032 471.864C544.912 471.864 544.016 472.264 543.344 473.064C542.688 473.848 542.36 474.952 542.36 476.376C542.36 477.8 542.688 478.912 543.344 479.712C544.016 480.512 544.912 480.912 546.032 480.912C547.616 480.912 548.664 480.216 549.176 478.824H552.128C551.744 480.168 551.024 481.24 549.968 482.04C548.912 482.824 547.6 483.216 546.032 483.216C544.768 483.216 543.648 482.936 542.672 482.376C541.696 481.8 540.928 481 540.368 479.976C539.824 478.936 539.552 477.736 539.552 476.376ZM556.247 468.024C555.751 468.024 555.335 467.856 554.999 467.52C554.663 467.184 554.495 466.768 554.495 466.272C554.495 465.776 554.663 465.36 554.999 465.024C555.335 464.688 555.751 464.52 556.247 464.52C556.727 464.52 557.135 464.688 557.471 465.024C557.807 465.36 557.975 465.776 557.975 466.272C557.975 466.768 557.807 467.184 557.471 467.52C557.135 467.856 556.727 468.024 556.247 468.024ZM557.591 469.776V483H554.855V469.776H557.591ZM560.271 476.328C560.271 475 560.543 473.824 561.087 472.8C561.647 471.776 562.399 470.984 563.343 470.424C564.303 469.848 565.359 469.56 566.511 469.56C567.551 469.56 568.455 469.768 569.223 470.184C570.007 470.584 570.631 471.088 571.095 471.696V469.776H573.855V483H571.095V481.032C570.631 481.656 569.999 482.176 569.199 482.592C568.399 483.008 567.487 483.216 566.463 483.216C565.327 483.216 564.287 482.928 563.343 482.352C562.399 481.76 561.647 480.944 561.087 479.904C560.543 478.848 560.271 477.656 560.271 476.328ZM571.095 476.376C571.095 475.464 570.903 474.672 570.519 474C570.151 473.328 569.663 472.816 569.055 472.464C568.447 472.112 567.791 471.936 567.087 471.936C566.383 471.936 565.727 472.112 565.119 472.464C564.511 472.8 564.015 473.304 563.631 473.976C563.263 474.632 563.079 475.416 563.079 476.328C563.079 477.24 563.263 478.04 563.631 478.728C564.015 479.416 564.511 479.944 565.119 480.312C565.743 480.664 566.399 480.84 567.087 480.84C567.791 480.84 568.447 480.664 569.055 480.312C569.663 479.96 570.151 479.448 570.519 478.776C570.903 478.088 571.095 477.288 571.095 476.376Z" fill="#FFBB00"/>
<path d="M586.684 12.528V17.424H592.444V19.656H586.684V24.768H593.164V27H583.948V10.296H593.164V12.528H586.684ZM595.622 20.376C595.622 19.016 595.894 17.824 596.438 16.8C596.998 15.76 597.766 14.96 598.742 14.4C599.718 13.84 600.838 13.56 602.102 13.56C603.702 13.56 605.022 13.944 606.062 14.712C607.118 15.464 607.83 16.544 608.198 17.952H605.246C605.006 17.296 604.622 16.784 604.094 16.416C603.566 16.048 602.902 15.864 602.102 15.864C600.982 15.864 600.086 16.264 599.414 17.064C598.758 17.848 598.43 18.952 598.43 20.376C598.43 21.8 598.758 22.912 599.414 23.712C600.086 24.512 600.982 24.912 602.102 24.912C603.686 24.912 604.734 24.216 605.246 22.824H608.198C607.814 24.168 607.094 25.24 606.038 26.04C604.982 26.824 603.67 27.216 602.102 27.216C600.838 27.216 599.718 26.936 598.742 26.376C597.766 25.8 596.998 25 596.438 23.976C595.894 22.936 595.622 21.736 595.622 20.376ZM616.661 27.216C615.413 27.216 614.285 26.936 613.277 26.376C612.269 25.8 611.477 25 610.901 23.976C610.325 22.936 610.037 21.736 610.037 20.376C610.037 19.032 610.333 17.84 610.925 16.8C611.517 15.76 612.325 14.96 613.349 14.4C614.373 13.84 615.517 13.56 616.781 13.56C618.045 13.56 619.189 13.84 620.213 14.4C621.237 14.96 622.045 15.76 622.637 16.8C623.229 17.84 623.525 19.032 623.525 20.376C623.525 21.72 623.221 22.912 622.613 23.952C622.005 24.992 621.173 25.8 620.117 26.376C619.077 26.936 617.925 27.216 616.661 27.216ZM616.661 24.84C617.365 24.84 618.021 24.672 618.629 24.336C619.253 24 619.757 23.496 620.141 22.824C620.525 22.152 620.717 21.336 620.717 20.376C620.717 19.416 620.533 18.608 620.165 17.952C619.797 17.28 619.309 16.776 618.701 16.44C618.093 16.104 617.437 15.936 616.733 15.936C616.029 15.936 615.373 16.104 614.765 16.44C614.173 16.776 613.701 17.28 613.349 17.952C612.997 18.608 612.821 19.416 612.821 20.376C612.821 21.8 613.181 22.904 613.901 23.688C614.637 24.456 615.557 24.84 616.661 24.84ZM632.902 13.56C633.942 13.56 634.87 13.776 635.686 14.208C636.518 14.64 637.166 15.28 637.63 16.128C638.094 16.976 638.326 18 638.326 19.2V27H635.614V19.608C635.614 18.424 635.318 17.52 634.726 16.896C634.134 16.256 633.326 15.936 632.302 15.936C631.278 15.936 630.462 16.256 629.854 16.896C629.262 17.52 628.966 18.424 628.966 19.608V27H626.23V13.776H628.966V15.288C629.414 14.744 629.982 14.32 630.67 14.016C631.374 13.712 632.118 13.56 632.902 13.56ZM647.552 27.216C646.304 27.216 645.176 26.936 644.168 26.376C643.16 25.8 642.368 25 641.792 23.976C641.216 22.936 640.928 21.736 640.928 20.376C640.928 19.032 641.224 17.84 641.816 16.8C642.408 15.76 643.216 14.96 644.24 14.4C645.264 13.84 646.408 13.56 647.672 13.56C648.936 13.56 650.08 13.84 651.104 14.4C652.128 14.96 652.936 15.76 653.528 16.8C654.12 17.84 654.416 19.032 654.416 20.376C654.416 21.72 654.112 22.912 653.504 23.952C652.896 24.992 652.064 25.8 651.008 26.376C649.968 26.936 648.816 27.216 647.552 27.216ZM647.552 24.84C648.256 24.84 648.912 24.672 649.52 24.336C650.144 24 650.648 23.496 651.032 22.824C651.416 22.152 651.608 21.336 651.608 20.376C651.608 19.416 651.424 18.608 651.056 17.952C650.688 17.28 650.2 16.776 649.592 16.44C648.984 16.104 648.328 15.936 647.624 15.936C646.92 15.936 646.264 16.104 645.656 16.44C645.064 16.776 644.592 17.28 644.24 17.952C643.888 18.608 643.712 19.416 643.712 20.376C643.712 21.8 644.072 22.904 644.792 23.688C645.528 24.456 646.448 24.84 647.552 24.84ZM673.128 13.56C674.168 13.56 675.096 13.776 675.912 14.208C676.744 14.64 677.392 15.28 677.856 16.128C678.336 16.976 678.576 18 678.576 19.2V27H675.864V19.608C675.864 18.424 675.568 17.52 674.976 16.896C674.384 16.256 673.576 15.936 672.552 15.936C671.528 15.936 670.712 16.256 670.104 16.896C669.512 17.52 669.216 18.424 669.216 19.608V27H666.504V19.608C666.504 18.424 666.208 17.52 665.616 16.896C665.024 16.256 664.216 15.936 663.192 15.936C662.168 15.936 661.352 16.256 660.744 16.896C660.152 17.52 659.856 18.424 659.856 19.608V27H657.12V13.776H659.856V15.288C660.304 14.744 660.872 14.32 661.56 14.016C662.248 13.712 662.984 13.56 663.768 13.56C664.824 13.56 665.768 13.784 666.6 14.232C667.432 14.68 668.072 15.328 668.52 16.176C668.92 15.376 669.544 14.744 670.392 14.28C671.24 13.8 672.152 13.56 673.128 13.56ZM684.794 13.776V27H682.058V13.776H684.794ZM685.898 10.224L680.594 12.84V10.824L685.898 7.896V10.224ZM687.474 20.328C687.474 19 687.746 17.824 688.29 16.8C688.85 15.776 689.602 14.984 690.546 14.424C691.506 13.848 692.562 13.56 693.714 13.56C694.754 13.56 695.658 13.768 696.426 14.184C697.21 14.584 697.834 15.088 698.298 15.696V13.776H701.058V27H698.298V25.032C697.834 25.656 697.202 26.176 696.402 26.592C695.602 27.008 694.69 27.216 693.666 27.216C692.53 27.216 691.49 26.928 690.546 26.352C689.602 25.76 688.85 24.944 688.29 23.904C687.746 22.848 687.474 21.656 687.474 20.328ZM698.298 20.376C698.298 19.464 698.106 18.672 697.722 18C697.354 17.328 696.866 16.816 696.258 16.464C695.65 16.112 694.994 15.936 694.29 15.936C693.586 15.936 692.93 16.112 692.322 16.464C691.714 16.8 691.218 17.304 690.834 17.976C690.466 18.632 690.282 19.416 690.282 20.328C690.282 21.24 690.466 22.04 690.834 22.728C691.218 23.416 691.714 23.944 692.322 24.312C692.946 24.664 693.602 24.84 694.29 24.84C694.994 24.84 695.65 24.664 696.258 24.312C696.866 23.96 697.354 23.448 697.722 22.776C698.106 22.088 698.298 21.288 698.298 20.376Z" fill="#378A7B"/>
<path d="M165.985 466.32V483H163.249V466.32H165.985ZM176.249 469.56C177.289 469.56 178.217 469.776 179.033 470.208C179.865 470.64 180.513 471.28 180.977 472.128C181.441 472.976 181.673 474 181.673 475.2V483H178.961V475.608C178.961 474.424 178.665 473.52 178.073 472.896C177.481 472.256 176.673 471.936 175.649 471.936C174.625 471.936 173.809 472.256 173.201 472.896C172.609 473.52 172.313 474.424 172.313 475.608V483H169.577V469.776H172.313V471.288C172.761 470.744 173.329 470.32 174.017 470.016C174.721 469.712 175.465 469.56 176.249 469.56ZM190.707 472.008H188.259V483H185.499V472.008H183.939V469.776H185.499V468.84C185.499 467.32 185.899 466.216 186.699 465.528C187.515 464.824 188.787 464.472 190.515 464.472V466.752C189.683 466.752 189.099 466.912 188.763 467.232C188.427 467.536 188.259 468.072 188.259 468.84V469.776H190.707V472.008ZM195.868 471.696C196.268 471.024 196.796 470.504 197.452 470.136C198.124 469.752 198.916 469.56 199.828 469.56V472.392H199.132C198.06 472.392 197.244 472.664 196.684 473.208C196.14 473.752 195.868 474.696 195.868 476.04V483H193.132V469.776H195.868V471.696ZM201.431 476.328C201.431 475 201.703 473.824 202.247 472.8C202.807 471.776 203.559 470.984 204.503 470.424C205.463 469.848 206.519 469.56 207.671 469.56C208.711 469.56 209.615 469.768 210.383 470.184C211.167 470.584 211.791 471.088 212.255 471.696V469.776H215.015V483H212.255V481.032C211.791 481.656 211.159 482.176 210.359 482.592C209.559 483.008 208.647 483.216 207.623 483.216C206.487 483.216 205.447 482.928 204.503 482.352C203.559 481.76 202.807 480.944 202.247 479.904C201.703 478.848 201.431 477.656 201.431 476.328ZM212.255 476.376C212.255 475.464 212.063 474.672 211.679 474C211.311 473.328 210.823 472.816 210.215 472.464C209.607 472.112 208.951 471.936 208.247 471.936C207.543 471.936 206.887 472.112 206.279 472.464C205.671 472.8 205.175 473.304 204.791 473.976C204.423 474.632 204.239 475.416 204.239 476.328C204.239 477.24 204.423 478.04 204.791 478.728C205.175 479.416 205.671 479.944 206.279 480.312C206.903 480.664 207.559 480.84 208.247 480.84C208.951 480.84 209.607 480.664 210.215 480.312C210.823 479.96 211.311 479.448 211.679 478.776C212.063 478.088 212.255 477.288 212.255 476.376ZM230.729 476.064C230.729 476.56 230.697 477.008 230.633 477.408H220.529C220.609 478.464 221.001 479.312 221.705 479.952C222.409 480.592 223.273 480.912 224.297 480.912C225.769 480.912 226.809 480.296 227.417 479.064H230.369C229.969 480.28 229.241 481.28 228.185 482.064C227.145 482.832 225.849 483.216 224.297 483.216C223.033 483.216 221.897 482.936 220.889 482.376C219.897 481.8 219.113 481 218.537 479.976C217.977 478.936 217.697 477.736 217.697 476.376C217.697 475.016 217.969 473.824 218.513 472.8C219.073 471.76 219.849 470.96 220.841 470.4C221.849 469.84 223.001 469.56 224.297 469.56C225.545 469.56 226.657 469.832 227.633 470.376C228.609 470.92 229.369 471.688 229.913 472.68C230.457 473.656 230.729 474.784 230.729 476.064ZM227.873 475.2C227.857 474.192 227.497 473.384 226.793 472.776C226.089 472.168 225.217 471.864 224.177 471.864C223.233 471.864 222.425 472.168 221.753 472.776C221.081 473.368 220.681 474.176 220.553 475.2H227.873ZM238.221 483.216C237.181 483.216 236.245 483.032 235.413 482.664C234.597 482.28 233.949 481.768 233.469 481.128C232.989 480.472 232.733 479.744 232.701 478.944H235.533C235.581 479.504 235.845 479.976 236.325 480.36C236.821 480.728 237.437 480.912 238.173 480.912C238.941 480.912 239.533 480.768 239.949 480.48C240.381 480.176 240.597 479.792 240.597 479.328C240.597 478.832 240.357 478.464 239.877 478.224C239.413 477.984 238.669 477.72 237.645 477.432C236.653 477.16 235.845 476.896 235.221 476.64C234.597 476.384 234.053 475.992 233.589 475.464C233.141 474.936 232.917 474.24 232.917 473.376C232.917 472.672 233.125 472.032 233.541 471.456C233.957 470.864 234.549 470.4 235.317 470.064C236.101 469.728 236.997 469.56 238.005 469.56C239.509 469.56 240.717 469.944 241.629 470.712C242.557 471.464 243.053 472.496 243.117 473.808H240.381C240.333 473.216 240.093 472.744 239.661 472.392C239.229 472.04 238.645 471.864 237.909 471.864C237.189 471.864 236.637 472 236.253 472.272C235.869 472.544 235.677 472.904 235.677 473.352C235.677 473.704 235.805 474 236.061 474.24C236.317 474.48 236.629 474.672 236.997 474.816C237.365 474.944 237.909 475.112 238.629 475.32C239.589 475.576 240.373 475.84 240.981 476.112C241.605 476.368 242.141 476.752 242.589 477.264C243.037 477.776 243.269 478.456 243.285 479.304C243.285 480.056 243.077 480.728 242.661 481.32C242.245 481.912 241.653 482.376 240.885 482.712C240.133 483.048 239.245 483.216 238.221 483.216ZM249.433 472.008V479.328C249.433 479.824 249.545 480.184 249.769 480.408C250.009 480.616 250.409 480.72 250.969 480.72H252.649V483H250.489C249.257 483 248.313 482.712 247.657 482.136C247.001 481.56 246.673 480.624 246.673 479.328V472.008H245.113V469.776H246.673V466.488H249.433V469.776H252.649V472.008H249.433ZM257.907 471.696C258.307 471.024 258.835 470.504 259.491 470.136C260.163 469.752 260.955 469.56 261.867 469.56V472.392H261.171C260.099 472.392 259.283 472.664 258.723 473.208C258.179 473.752 257.907 474.696 257.907 476.04V483H255.171V469.776H257.907V471.696ZM276.358 469.776V483H273.622V481.44C273.19 481.984 272.622 482.416 271.918 482.736C271.23 483.04 270.494 483.192 269.71 483.192C268.67 483.192 267.734 482.976 266.902 482.544C266.086 482.112 265.438 481.472 264.958 480.624C264.494 479.776 264.262 478.752 264.262 477.552V469.776H266.974V477.144C266.974 478.328 267.27 479.24 267.862 479.88C268.454 480.504 269.262 480.816 270.286 480.816C271.31 480.816 272.118 480.504 272.71 479.88C273.318 479.24 273.622 478.328 273.622 477.144V469.776H276.358ZM279.056 476.376C279.056 475.016 279.328 473.824 279.872 472.8C280.432 471.76 281.2 470.96 282.176 470.4C283.152 469.84 284.272 469.56 285.536 469.56C287.136 469.56 288.456 469.944 289.496 470.712C290.552 471.464 291.264 472.544 291.632 473.952H288.68C288.44 473.296 288.056 472.784 287.528 472.416C287 472.048 286.336 471.864 285.536 471.864C284.416 471.864 283.52 472.264 282.848 473.064C282.192 473.848 281.864 474.952 281.864 476.376C281.864 477.8 282.192 478.912 282.848 479.712C283.52 480.512 284.416 480.912 285.536 480.912C287.12 480.912 288.168 480.216 288.68 478.824H291.632C291.248 480.168 290.528 481.24 289.472 482.04C288.416 482.824 287.104 483.216 285.536 483.216C284.272 483.216 283.152 482.936 282.176 482.376C281.2 481.8 280.432 481 279.872 479.976C279.328 478.936 279.056 477.736 279.056 476.376ZM297.551 472.008V479.328C297.551 479.824 297.663 480.184 297.887 480.408C298.127 480.616 298.527 480.72 299.087 480.72H300.767V483H298.607C297.375 483 296.431 482.712 295.775 482.136C295.119 481.56 294.791 480.624 294.791 479.328V472.008H293.231V469.776H294.791V466.488H297.551V469.776H300.767V472.008H297.551ZM315.264 469.776V483H312.528V481.44C312.096 481.984 311.528 482.416 310.824 482.736C310.136 483.04 309.4 483.192 308.616 483.192C307.576 483.192 306.64 482.976 305.808 482.544C304.992 482.112 304.344 481.472 303.864 480.624C303.4 479.776 303.168 478.752 303.168 477.552V469.776H305.88V477.144C305.88 478.328 306.176 479.24 306.768 479.88C307.36 480.504 308.168 480.816 309.192 480.816C310.216 480.816 311.024 480.504 311.616 479.88C312.224 479.24 312.528 478.328 312.528 477.144V469.776H315.264ZM321.61 471.696C322.01 471.024 322.538 470.504 323.194 470.136C323.866 469.752 324.658 469.56 325.57 469.56V472.392H324.874C323.802 472.392 322.986 472.664 322.426 473.208C321.882 473.752 321.61 474.696 321.61 476.04V483H318.874V469.776H321.61V471.696ZM327.173 476.328C327.173 475 327.445 473.824 327.989 472.8C328.549 471.776 329.301 470.984 330.245 470.424C331.205 469.848 332.261 469.56 333.413 469.56C334.453 469.56 335.357 469.768 336.125 470.184C336.909 470.584 337.533 471.088 337.997 471.696V469.776H340.757V483H337.997V481.032C337.533 481.656 336.901 482.176 336.101 482.592C335.301 483.008 334.389 483.216 333.365 483.216C332.229 483.216 331.189 482.928 330.245 482.352C329.301 481.76 328.549 480.944 327.989 479.904C327.445 478.848 327.173 477.656 327.173 476.328ZM337.997 476.376C337.997 475.464 337.805 474.672 337.421 474C337.053 473.328 336.565 472.816 335.957 472.464C335.349 472.112 334.693 471.936 333.989 471.936C333.285 471.936 332.629 472.112 332.021 472.464C331.413 472.8 330.917 473.304 330.533 473.976C330.165 474.632 329.981 475.416 329.981 476.328C329.981 477.24 330.165 478.04 330.533 478.728C330.917 479.416 331.413 479.944 332.021 480.312C332.645 480.664 333.301 480.84 333.989 480.84C334.693 480.84 335.349 480.664 335.957 480.312C336.565 479.96 337.053 479.448 337.421 478.776C337.805 478.088 337.997 477.288 337.997 476.376Z" fill="#72AFC1"/>
</svg>
