<svg width="492" height="81" viewBox="0 0 492 81" fill="none" xmlns="http://www.w3.org/2000/svg">
<path d="M220.272 36.5303C220.272 36.5303 219.823 38.029 219.32 38.1819C218.818 38.3348 217.602 39.436 218.131 40.4147C218.659 41.3935 220.193 42.2805 221.092 41.3935C221.991 40.5065 222.123 37.1114 222.123 37.1114L220.246 36.5303H220.272Z" fill="#EDC8D0"/>
<path d="M261.707 36.8683C261.707 36.8683 261.866 38.4588 261.469 38.8259C261.073 39.1929 260.385 40.814 261.231 41.4257C262.078 42.0374 263.796 42.068 264.272 40.8445C264.748 39.6211 263.611 36.4707 263.611 36.4707L261.707 36.8683Z" fill="#EDC8D0"/>
<path d="M236.719 7.04395C236.719 7.04395 234.498 12.1213 236.032 13.8953C237.565 15.6693 240.025 15.6693 240.025 15.6693V16.7398H243.33V13.0083C243.33 13.0083 241.188 7.41098 236.719 7.04395Z" fill="#EDC8D0"/>
<path d="M236.719 7.07567C236.719 7.07567 236.64 5.9134 238.121 6.00516C239.601 6.09692 243.25 5.54636 243.462 7.62623C243.674 9.70609 244.07 13.1929 243.462 13.1929C242.854 13.1929 242.457 12.2753 242.457 12.2753C242.457 12.2753 240.738 7.90151 236.719 7.10627V7.07567Z" fill="#3B101A"/>
<path d="M235.556 70.1748L235.027 72.1017C235.027 72.1017 232.7 71.9182 232.7 73.5087C232.7 75.0992 233.573 75.0992 233.573 75.0992H237.381L236.799 70.2054H235.556V70.1748Z" fill="#5C312A"/>
<path d="M249.28 70.4805L248.751 72.4074C248.751 72.4074 246.424 72.2239 246.424 73.8144C246.424 75.4048 247.296 75.4049 247.296 75.4049H251.104L250.522 70.511H249.28V70.4805Z" fill="#5C312A"/>
<path d="M245.101 16.709H239.125V38.3028H245.101V16.709Z" fill="white"/>
<path d="M240.871 16.7396L240.395 33.7455L241.717 35.1525L242.96 33.562L242.484 16.709L240.871 16.7396Z" fill="#FF1515"/>
<path d="M219.532 36.0105C219.532 36.0105 227.121 19.4022 233.652 16.7412H239.311L239.073 37.0199H244.044V16.7412H249.941C249.941 16.7412 254.779 19.0352 259.142 26.1006C263.505 33.166 264.114 36.4693 264.114 36.4693C264.114 36.4693 261.496 37.5398 260.702 37.0505C260.147 35.0929 258.217 28.8533 250.945 22.3079V70.5117H248.698L246.397 45.1252C246.397 45.1252 245.974 41.6078 242.166 41.669C238.359 41.7301 238.861 45.4005 238.861 45.4005L237.751 70.5117H234.63L232.938 22.4608C232.938 22.4608 229.21 23.6231 222.996 36.9281C221.251 37.3563 219.505 36.0717 219.505 36.0717L219.532 36.0105Z" fill="#BB5252"/>
<path d="M87.5353 41.721C87.5353 41.721 86.5569 43.0668 86.0017 42.975C85.4464 42.8833 83.8069 43.4644 84.0185 44.7185C84.23 45.9725 85.4993 47.5936 86.7156 47.1042C87.932 46.6148 89.2541 43.1586 89.2541 43.1586L87.5353 41.6904V41.721Z" fill="#EDC8D0"/>
<path d="M120.456 41.7801C120.456 41.7801 120.509 43.5236 120.033 43.8906C119.557 44.2576 118.684 45.9399 119.557 46.7351C120.429 47.5303 122.307 47.7139 122.941 46.3986C123.576 45.0834 122.545 41.5049 122.545 41.5049L120.429 41.7496L120.456 41.7801Z" fill="#EDC8D0"/>
<path d="M100.307 6.14844C100.307 6.14844 98.3238 10.6752 99.6988 12.2657C101.074 13.8562 103.268 13.8561 103.268 13.8561V14.8043H106.23V11.4704C106.23 11.4704 104.3 6.4543 100.307 6.14844Z" fill="#EDC8D0"/>
<path d="M100.783 5.99405C100.783 5.99405 100.73 4.9541 102.026 5.01527C103.321 5.07644 106.627 4.58707 106.812 6.45283C106.997 8.31859 107.341 11.4384 106.812 11.4384C106.283 11.4384 105.913 10.6126 105.913 10.6126C105.913 10.6126 104.379 6.69754 100.783 5.99405Z" fill="#3B101A"/>
<path d="M101.074 15.4769L108.028 15.4463L107.579 21.4718L102.079 21.7777L101.074 15.4769Z" fill="#FDE0E0"/>
<path d="M95.9175 37.8945L97.2661 73.0075H99.2228L102.026 43.6448H109.456L112.973 73.0075H115.326L115.591 37.8945H95.9175Z" fill="#D92626"/>
<path d="M97.8479 73.0078L97.3983 74.5983C97.3983 74.5983 95.468 74.4453 95.468 75.7606C95.468 77.0758 96.182 77.0757 96.182 77.0757H99.355L98.8791 73.0078H97.8479Z" fill="#5C312A"/>
<path d="M113.74 73.0078L113.29 74.5983C113.29 74.5983 111.36 74.4453 111.36 75.7606C111.36 77.0758 112.074 77.0757 112.074 77.0757H115.247L114.771 73.0078H113.74Z" fill="#5C312A"/>
<path d="M86.6892 41.0157C86.6892 41.0157 92.8767 31.2281 93.0882 28.6895C93.2998 26.1508 93.432 18.0149 94.8863 16.6691C96.3406 15.3233 101.074 15.4762 101.074 15.4762C101.074 15.4762 104.379 20.89 104.987 20.9817C105.595 21.0735 108.002 15.4762 108.002 15.4762C108.002 15.4762 114.48 14.681 115.564 16.2103C116.648 17.7396 121.408 27.1907 122.386 32.2986C123.365 37.4065 123.153 42.3921 123.153 42.3921H119.372C119.372 42.3921 119.716 34.7455 118.949 32.2986C118.182 29.8517 116.754 25.3861 115.591 25.8449V37.9265H95.9176V32.3598L89.783 43.6461L86.6892 41.0157Z" fill="#C53838"/>
<path d="M391.536 41.721C391.536 41.721 390.557 43.0668 390.002 42.975C389.447 42.8833 387.807 43.4644 388.019 44.7185C388.23 45.9725 389.5 47.5936 390.716 47.1042C391.932 46.6148 393.254 43.1586 393.254 43.1586L391.536 41.6904V41.721Z" fill="#EDC8D0"/>
<path d="M424.456 41.7801C424.456 41.7801 424.509 43.5236 424.033 43.8906C423.557 44.2576 422.684 45.9399 423.557 46.7351C424.429 47.5303 426.307 47.7139 426.941 46.3986C427.576 45.0834 426.545 41.5049 426.545 41.5049L424.429 41.7496L424.456 41.7801Z" fill="#EDC8D0"/>
<path d="M404.307 6.14844C404.307 6.14844 402.324 10.6752 403.699 12.2657C405.074 13.8562 407.269 13.8561 407.269 13.8561V14.8043H410.231V11.4704C410.231 11.4704 408.3 6.4543 404.307 6.14844Z" fill="#EDC8D0"/>
<path d="M404.784 5.99405C404.784 5.99405 404.731 4.9541 406.026 5.01527C407.322 5.07644 410.627 4.58707 410.812 6.45283C410.997 8.31859 411.341 11.4384 410.812 11.4384C410.284 11.4384 409.913 10.6126 409.913 10.6126C409.913 10.6126 408.38 6.69754 404.784 5.99405Z" fill="#3B101A"/>
<path d="M405.074 15.4769L412.029 15.4463L411.579 21.4718L406.079 21.7777L405.074 15.4769Z" fill="#FDE0E0"/>
<path d="M399.918 37.8945L401.267 73.0075H403.223L406.026 43.6448H413.456L416.973 73.0075H419.327L419.591 37.8945H399.918Z" fill="#D92626"/>
<path d="M401.848 73.0078L401.399 74.5983C401.399 74.5983 399.468 74.4453 399.468 75.7606C399.468 77.0758 400.182 77.0757 400.182 77.0757H403.355L402.879 73.0078H401.848Z" fill="#5C312A"/>
<path d="M417.74 73.0078L417.291 74.5983C417.291 74.5983 415.36 74.4453 415.36 75.7606C415.36 77.0758 416.074 77.0757 416.074 77.0757H419.247L418.771 73.0078H417.74Z" fill="#5C312A"/>
<path d="M390.689 41.0157C390.689 41.0157 396.877 31.2281 397.088 28.6895C397.3 26.1508 397.432 18.0149 398.887 16.6691C400.341 15.3233 405.074 15.4762 405.074 15.4762C405.074 15.4762 408.379 20.89 408.988 20.9817C409.596 21.0735 412.002 15.4762 412.002 15.4762C412.002 15.4762 418.48 14.681 419.564 16.2103C420.649 17.7396 425.408 27.1907 426.387 32.2986C427.365 37.4065 427.153 42.3921 427.153 42.3921H423.372C423.372 42.3921 423.716 34.7455 422.949 32.2986C422.182 29.8517 420.754 25.3861 419.591 25.8449V37.9265H399.918V32.3598L393.783 43.6461L390.689 41.0157Z" fill="#C53838"/>
<path d="M3.18416 41.1678C3.18416 41.1678 2.99908 43.0336 3.4486 43.4618C3.89812 43.89 4.71781 45.7863 3.713 46.5204C2.70819 47.2545 0.725042 47.285 0.143312 45.8475C-0.438419 44.4099 0.936589 40.709 0.936589 40.709L3.15773 41.1984L3.18416 41.1678Z" fill="#EDC8D0"/>
<path d="M20.9273 72.3948L21.4032 74.1076C21.4032 74.1076 23.4922 73.9241 23.4922 75.3617C23.4922 76.7992 22.6989 76.7687 22.6989 76.7687H19.2614L19.7902 72.3643H20.9008L20.9273 72.3948Z" fill="#5C312A"/>
<path d="M8.57844 72.6712L9.05439 74.3841C9.05439 74.3841 11.1433 74.2005 11.1433 75.6381C11.1433 77.0756 10.3501 77.045 10.3501 77.045H6.91256L7.4414 72.6406H8.55198L8.57844 72.6712Z" fill="#5C312A"/>
<path d="M16.5113 16.2088C16.5113 16.2088 15.8502 18.1052 17.0666 18.411C18.2829 18.7169 21.1651 18.6557 22.1435 19.4204C23.1218 20.185 24.3911 20.338 23.8358 18.9922C23.2805 17.6464 21.9848 16.3923 21.2444 16.4229C20.5041 16.4535 20.4512 10.948 20.7949 8.83753C21.1387 6.72708 18.9704 4.18844 16.3262 4.21902C13.6819 4.24961 17.4897 8.19523 16.5113 16.2088Z" fill="#361010"/>
<path d="M22.0908 42.1484V72.6123H19.235L16.3793 50.0703C16.3793 50.0703 15.9033 47.4705 14.6341 47.4705C13.3648 47.4705 12.9418 50.0703 12.9418 50.0703L9.7158 72.6123H6.70138L6.41051 42.1484H22.0644H22.0908Z" fill="#FF7272"/>
<path d="M48.0569 67.8408V74.6615H46.2059L45.9415 67.6572L48.0569 67.8408Z" fill="#FFC0C0"/>
<path d="M39.4634 68.1748V74.9649H37.6389L37.3745 67.9912L39.4634 68.1748Z" fill="#FFC0C0"/>
<path d="M48.1098 74.0786C48.1098 74.0786 49.2203 75.7914 48.2155 75.6997C48.2155 75.6997 48.0833 76.2196 47.8189 76.1279C47.8189 76.1279 47.6074 76.2502 47.2107 76.1279C47.2107 76.1279 46.1794 75.7303 46.1001 75.3326C46.1001 75.3326 46.0208 74.8432 46.1001 74.5068C46.1794 74.1703 46.3117 74.2621 46.5497 74.0174C46.7877 73.7727 46.8141 73.3139 47.3958 73.0387C47.9775 72.7634 48.0569 74.048 48.0569 74.048L48.1098 74.0786Z" fill="#231F20"/>
<path d="M39.5423 74.1089C39.5423 74.1089 40.6529 75.8217 39.6481 75.7299C39.6481 75.7299 39.5159 76.2499 39.2515 76.1581C39.2515 76.1581 39.0399 76.2805 38.6433 76.1581C38.6433 76.1581 37.6121 75.7605 37.5327 75.3629C37.5327 75.3629 37.4534 74.8735 37.5327 74.5371C37.6121 74.2006 37.7443 74.2924 37.9823 74.0477C38.2202 73.803 38.2467 73.3442 38.8284 73.0689C39.4101 72.7937 39.4894 74.0783 39.4894 74.0783L39.5423 74.1089Z" fill="#231F20"/>
<path d="M48.665 55.5127C48.665 55.5127 50.6747 55.5739 51.1242 57.3479C51.1242 57.3479 55.4343 58.1125 53.8477 60.0089C52.2612 61.9052 49.2997 60.8959 49.2997 60.8959C49.2997 60.8959 50.4367 66.8908 47.6602 68.0531C44.8838 69.2153 44.8309 69.6436 44.7516 70.3165C44.6722 70.9894 44.5665 74.8432 44.5665 74.8432L42.7684 74.9044L42.5569 69.6436C42.5569 69.6436 37.6915 70.1635 36.1049 68.9401L35.629 73.8033L33.8838 73.6198L33.4343 67.3496C33.4343 67.3496 31.742 61.8441 35.629 61.477C39.516 61.11 43.8261 62.8534 45.0953 60.223C46.3646 57.5926 46.2852 55.788 48.6386 55.5433L48.665 55.5127Z" fill="#FFD2D2"/>
<path d="M53.8743 58.4795C53.8743 58.4795 54.7469 58.7548 54.456 59.3971C54.1652 60.0394 53.5041 59.7335 53.4512 59.3971C53.3983 59.0606 53.8743 58.4795 53.8743 58.4795Z" fill="#231F20"/>
<path d="M34.9944 61.5693C34.9944 61.5693 31.4511 61.6916 30.2348 65.7902C29.0184 69.8888 27.9079 70.5923 27.9079 70.5923C27.9079 70.5923 27.379 71.1428 27.7227 71.2957C28.0665 71.4487 28.0929 70.8981 28.3045 70.7758C28.516 70.6534 29.8117 69.0324 30.1819 67.8701C30.5521 66.7078 30.7372 64.6279 31.8742 64.1386C33.0112 63.6492 34.2011 63.2516 34.3862 63.0375C34.5713 62.8234 34.9944 61.5693 34.9944 61.5693Z" fill="#231F20"/>
<path d="M44.6195 74.4448C44.6195 74.4448 45.7565 76.1576 44.7253 76.0659C44.7253 76.0659 44.5666 76.5858 44.3286 76.4941C44.3286 76.4941 44.0907 76.6164 43.694 76.4941C43.694 76.4941 42.6363 76.0965 42.557 75.6988C42.557 75.6988 42.4777 75.2095 42.557 74.873C42.6363 74.5366 42.7686 74.6284 43.033 74.3837C43.2974 74.139 43.2974 73.6802 43.9056 73.4049C44.5138 73.1296 44.5931 74.4142 44.5931 74.4142L44.6195 74.4448Z" fill="#231F20"/>
<path d="M35.7614 73.3139C35.7614 73.3139 36.8719 75.0268 35.8671 74.935C35.8671 74.935 35.7349 75.455 35.4705 75.3632C35.4705 75.3632 35.2589 75.4856 34.8623 75.3632C34.8623 75.3632 33.8311 74.9656 33.7517 74.568C33.7517 74.568 33.6724 74.0786 33.7517 73.7421C33.8311 73.4057 33.9633 73.4974 34.2012 73.2528C34.4392 73.0081 34.4657 72.5493 35.0474 72.274C35.6291 71.9987 35.7085 73.2834 35.7085 73.2834L35.7614 73.3139Z" fill="#231F20"/>
<path d="M45.1219 60.193C45.1219 60.193 47.5281 62.7622 49.4848 61.9364L49.5642 62.3646C49.5642 62.3646 48.2949 63.1293 47.0522 62.3646C45.8094 61.6 44.7517 60.8047 44.7517 60.8047L45.1219 60.1318V60.193Z" fill="#E22F2F"/>
<path d="M31.3189 46.2441C31.3189 46.2441 33.3021 54.9 38.0617 57.194C42.8213 59.488 45.1218 60.1915 45.1218 60.1915L44.7516 60.8643C44.7516 60.8643 38.2204 59.4268 35.206 56.0318C32.4031 52.8814 30.0497 46.2748 30.0497 46.2748H31.3189V46.2441Z" fill="#E22F2F"/>
<path d="M48.6649 55.5135C48.6649 55.5135 47.9774 54.5347 46.9991 55.1464C46.0207 55.7582 46.9197 57.6239 46.4967 58.6027C46.0736 59.5815 45.3596 63.5271 46.7611 62.6095C48.1625 61.6919 48.1361 59.6426 48.189 58.7556C48.2419 57.8686 48.9029 56.2781 48.6385 55.5135H48.6649Z" fill="#231F20"/>
<path d="M29.3096 40.8926C29.3096 40.8926 30.2086 42.4525 30.7903 42.4525C31.3721 42.4525 33.0644 43.2783 32.6942 44.5935C32.324 45.9087 30.8168 47.3769 29.574 46.704C28.3312 46.0311 27.3264 42.1772 27.3264 42.1772L29.3096 40.8926Z" fill="#EDC8D0"/>
<path d="M29.5472 39.7624C29.5472 39.7624 24.6025 33.7064 24.3645 30.2501C24.1266 26.7939 24.153 17.9545 21.5881 17.5262H8.0232C8.0232 17.5262 5.61693 17.3427 4.45347 20.6461C3.29001 23.9494 0.513594 29.669 0.513594 31.5959V41.2H3.42222C3.42222 41.2 2.86696 33.8287 4.03043 30.7395C5.19389 27.6503 6.41022 26.1822 6.41022 26.1822V42.1176H22.0641V35.4498C22.0641 35.4498 24.4703 42.1788 28.0665 42.7293C31.6626 43.2799 29.4943 39.7319 29.4943 39.7319L29.5472 39.7624Z" fill="#E22F2F"/>
<path d="M19.5256 6.1748C19.5256 6.1748 22.1434 12.1085 20.3453 14.1884C18.5473 16.2682 15.665 16.2683 15.665 16.2683V17.5223H11.8044V13.1485C11.8044 13.1485 14.3165 6.60301 19.5521 6.1748H19.5256Z" fill="#EDC8D0"/>
<path d="M15.7973 4.31139C15.48 4.31139 12.7564 2.81265 10.9848 6.39123C9.21315 9.96982 8.26125 16.5153 8.36702 17.7082C8.47279 18.901 8.34058 22.6325 9.98001 21.2256C11.6194 19.8186 11.7516 17.9528 12.0954 15.9647C12.4391 13.9766 13.0473 11.0403 14.819 9.93925C16.5906 8.83814 20.1603 7.88998 19.5257 6.17715C18.8911 4.46433 15.8237 4.31139 15.8237 4.31139H15.7973Z" fill="#361010"/>
<path d="M307.184 41.1678C307.184 41.1678 306.999 43.0336 307.449 43.4618C307.898 43.89 308.718 45.7863 307.713 46.5204C306.708 47.2545 304.725 47.285 304.144 45.8475C303.562 44.4099 304.937 40.709 304.937 40.709L307.158 41.1984L307.184 41.1678Z" fill="#EDC8D0"/>
<path d="M324.928 72.3948L325.403 74.1076C325.403 74.1076 327.492 73.9241 327.492 75.3617C327.492 76.7992 326.699 76.7687 326.699 76.7687H323.262L323.79 72.3643H324.901L324.928 72.3948Z" fill="#5C312A"/>
<path d="M312.579 72.6712L313.055 74.3841C313.055 74.3841 315.144 74.2005 315.144 75.6381C315.144 77.0756 314.35 77.045 314.35 77.045H310.913L311.442 72.6406H312.552L312.579 72.6712Z" fill="#5C312A"/>
<path d="M320.512 16.2088C320.512 16.2088 319.85 18.1052 321.067 18.411C322.283 18.7169 325.165 18.6557 326.144 19.4204C327.122 20.185 328.391 20.338 327.836 18.9922C327.281 17.6464 325.985 16.3923 325.245 16.4229C324.504 16.4535 324.451 10.948 324.795 8.83753C325.139 6.72708 322.971 4.18844 320.326 4.21902C317.682 4.24961 321.49 8.19523 320.512 16.2088Z" fill="#361010"/>
<path d="M326.091 42.1484V72.6123H323.235L320.38 50.0703C320.38 50.0703 319.904 47.4705 318.634 47.4705C317.365 47.4705 316.942 50.0703 316.942 50.0703L313.716 72.6123H310.702L310.411 42.1484H326.065H326.091Z" fill="#FF7272"/>
<path d="M352.057 67.8408V74.6615H350.206L349.942 67.6572L352.057 67.8408Z" fill="#FFC0C0"/>
<path d="M343.464 68.1748V74.9649H341.639L341.375 67.9912L343.464 68.1748Z" fill="#FFC0C0"/>
<path d="M352.11 74.0786C352.11 74.0786 353.221 75.7914 352.216 75.6997C352.216 75.6997 352.084 76.2196 351.819 76.1279C351.819 76.1279 351.608 76.2502 351.211 76.1279C351.211 76.1279 350.18 75.7303 350.101 75.3326C350.101 75.3326 350.021 74.8432 350.101 74.5068C350.18 74.1703 350.312 74.2621 350.55 74.0174C350.788 73.7727 350.815 73.3139 351.396 73.0387C351.978 72.7634 352.057 74.048 352.057 74.048L352.11 74.0786Z" fill="#231F20"/>
<path d="M343.543 74.1089C343.543 74.1089 344.653 75.8217 343.648 75.7299C343.648 75.7299 343.516 76.2499 343.252 76.1581C343.252 76.1581 343.04 76.2805 342.644 76.1581C342.644 76.1581 341.612 75.7605 341.533 75.3629C341.533 75.3629 341.454 74.8735 341.533 74.5371C341.612 74.2006 341.745 74.2924 341.983 74.0477C342.22 73.803 342.247 73.3442 342.829 73.0689C343.41 72.7937 343.49 74.0783 343.49 74.0783L343.543 74.1089Z" fill="#231F20"/>
<path d="M352.665 55.5127C352.665 55.5127 354.675 55.5739 355.124 57.3479C355.124 57.3479 359.435 58.1125 357.848 60.0089C356.261 61.9052 353.3 60.8959 353.3 60.8959C353.3 60.8959 354.437 66.8908 351.66 68.0531C348.884 69.2153 348.831 69.6436 348.752 70.3165C348.672 70.9894 348.567 74.8432 348.567 74.8432L346.769 74.9044L346.557 69.6436C346.557 69.6436 341.692 70.1635 340.105 68.9401L339.629 73.8033L337.884 73.6198L337.435 67.3496C337.435 67.3496 335.742 61.8441 339.629 61.477C343.516 61.11 347.826 62.8534 349.096 60.223C350.365 57.5926 350.285 55.788 352.639 55.5433L352.665 55.5127Z" fill="#FFD2D2"/>
<path d="M357.875 58.4795C357.875 58.4795 358.747 58.7548 358.456 59.3971C358.165 60.0394 357.504 59.7335 357.451 59.3971C357.399 59.0606 357.875 58.4795 357.875 58.4795Z" fill="#231F20"/>
<path d="M338.995 61.5693C338.995 61.5693 335.451 61.6916 334.235 65.7902C333.019 69.8888 331.908 70.5923 331.908 70.5923C331.908 70.5923 331.379 71.1428 331.723 71.2957C332.067 71.4487 332.093 70.8981 332.305 70.7758C332.516 70.6534 333.812 69.0324 334.182 67.8701C334.552 66.7078 334.737 64.6279 335.874 64.1386C337.011 63.6492 338.201 63.2516 338.386 63.0375C338.572 62.8234 338.995 61.5693 338.995 61.5693Z" fill="#231F20"/>
<path d="M348.62 74.4448C348.62 74.4448 349.757 76.1576 348.726 76.0659C348.726 76.0659 348.567 76.5858 348.329 76.4941C348.329 76.4941 348.091 76.6164 347.695 76.4941C347.695 76.4941 346.637 76.0965 346.557 75.6988C346.557 75.6988 346.478 75.2095 346.557 74.873C346.637 74.5366 346.769 74.6284 347.033 74.3837C347.298 74.139 347.298 73.6802 347.906 73.4049C348.514 73.1296 348.594 74.4142 348.594 74.4142L348.62 74.4448Z" fill="#231F20"/>
<path d="M339.762 73.3139C339.762 73.3139 340.872 75.0268 339.867 74.935C339.867 74.935 339.735 75.455 339.471 75.3632C339.471 75.3632 339.259 75.4856 338.863 75.3632C338.863 75.3632 337.831 74.9656 337.752 74.568C337.752 74.568 337.673 74.0786 337.752 73.7421C337.831 73.4057 337.964 73.4974 338.201 73.2528C338.439 73.0081 338.466 72.5493 339.048 72.274C339.629 71.9987 339.709 73.2834 339.709 73.2834L339.762 73.3139Z" fill="#231F20"/>
<path d="M349.122 60.193C349.122 60.193 351.528 62.7622 353.485 61.9364L353.564 62.3646C353.564 62.3646 352.295 63.1293 351.052 62.3646C349.81 61.6 348.752 60.8047 348.752 60.8047L349.122 60.1318V60.193Z" fill="#E22F2F"/>
<path d="M335.319 46.2441C335.319 46.2441 337.302 54.9 342.062 57.194C346.822 59.488 349.122 60.1915 349.122 60.1915L348.752 60.8643C348.752 60.8643 342.221 59.4268 339.206 56.0318C336.403 52.8814 334.05 46.2748 334.05 46.2748H335.319V46.2441Z" fill="#E22F2F"/>
<path d="M352.665 55.5135C352.665 55.5135 351.978 54.5347 351 55.1464C350.021 55.7582 350.92 57.6239 350.497 58.6027C350.074 59.5815 349.36 63.5271 350.762 62.6095C352.163 61.6919 352.137 59.6426 352.189 58.7556C352.242 57.8686 352.903 56.2781 352.639 55.5135H352.665Z" fill="#231F20"/>
<path d="M333.31 40.8926C333.31 40.8926 334.209 42.4525 334.791 42.4525C335.372 42.4525 337.065 43.2783 336.694 44.5935C336.324 45.9087 334.817 47.3769 333.574 46.704C332.331 46.0311 331.327 42.1772 331.327 42.1772L333.31 40.8926Z" fill="#EDC8D0"/>
<path d="M333.547 39.7624C333.547 39.7624 328.603 33.7064 328.365 30.2501C328.127 26.7939 328.153 17.9545 325.588 17.5262H312.023C312.023 17.5262 309.617 17.3427 308.454 20.6461C307.29 23.9494 304.514 29.669 304.514 31.5959V41.2H307.422C307.422 41.2 306.867 33.8287 308.031 30.7395C309.194 27.6503 310.41 26.1822 310.41 26.1822V42.1176H326.064V35.4498C326.064 35.4498 328.471 42.1788 332.067 42.7293C335.663 43.2799 333.495 39.7319 333.495 39.7319L333.547 39.7624Z" fill="#E22F2F"/>
<path d="M323.526 6.1748C323.526 6.1748 326.144 12.1085 324.346 14.1884C322.548 16.2682 319.665 16.2683 319.665 16.2683V17.5223H315.805V13.1485C315.805 13.1485 318.317 6.60301 323.552 6.1748H323.526Z" fill="#EDC8D0"/>
<path d="M319.798 4.31139C319.48 4.31139 316.757 2.81265 314.985 6.39123C313.213 9.96982 312.261 16.5153 312.367 17.7082C312.473 18.901 312.341 22.6325 313.98 21.2256C315.62 19.8186 315.752 17.9528 316.096 15.9647C316.439 13.9766 317.048 11.0403 318.819 9.93925C320.591 8.83814 324.161 7.88998 323.526 6.17715C322.891 4.46433 319.824 4.31139 319.824 4.31139H319.798Z" fill="#361010"/>
<path d="M164.767 11.7617H171.43L171.033 17.5119L165.745 17.8178L164.767 11.7617Z" fill="#E46060"/>
<path d="M176.242 11.7606C176.242 11.7606 178.252 11.1489 179.495 13.2899C180.738 15.4309 187.348 26.9008 187.613 29.7453C187.877 32.5898 187.613 40.5728 187.613 40.5728C187.613 40.5728 184.598 40.1446 183.99 40.8481C183.99 40.8481 183.858 31.9475 183.276 30.5099C182.694 29.0724 177.115 18.7648 177.115 18.7648C177.115 18.7648 175.396 14.7274 176.269 11.7606H176.242Z" fill="#E46060"/>
<path d="M157.865 15.6159C157.865 15.6159 158.817 12.0067 160.271 11.8232C161.726 11.6397 165.375 11.8232 165.375 11.8232C165.375 11.8232 165.93 17.3593 168.019 17.4511C170.108 17.5428 170.743 11.7314 170.743 11.7314H176.269C176.269 11.7314 175.555 15.7994 177.38 18.0934C179.204 20.3873 180.5 20.9685 180.5 20.9685V37.6074L157.892 38.0662V15.6159H157.865Z" fill="#941400"/>
<path d="M158.764 38.0653L159.108 76.0533H162.651C162.651 76.0533 162.519 42.4085 169.474 42.4085C176.428 42.4085 177.062 76.0533 177.062 76.0533H180.024L180.474 37.6064L158.764 38.0653Z" fill="#DA2828"/>
<path d="M184.598 39.8375C184.598 39.8375 184.651 41.5197 184.202 41.8561C183.752 42.1926 182.906 43.8442 183.752 44.5783C184.598 45.3124 186.396 45.5265 187.005 44.2725C187.613 43.0184 186.634 39.5928 186.634 39.5928L184.598 39.8375Z" fill="#EDC8C8"/>
<path d="M163.18 1.36167C163.18 1.36167 160.8 6.77541 162.44 8.70234C164.079 10.6293 166.723 10.5987 166.723 10.5987V11.7304H170.266V7.72361C170.266 7.72361 167.966 1.72868 163.18 1.33105V1.36167Z" fill="#EDC8C8"/>
<path d="M163.18 1.36156C163.18 1.36156 163.101 -0.0759945 164.899 0.0157641C166.697 0.107523 171.245 -0.565392 171.483 2.00385C171.721 4.57309 172.224 8.85518 171.483 8.85518C170.743 8.85518 170.24 7.7235 170.24 7.7235C170.24 7.7235 168.099 2.30971 163.154 1.33095L163.18 1.36156Z" fill="#5B5858"/>
<path d="M167.649 39.0439H166.274V79.3872H167.649V39.0439Z" fill="#2A0000"/>
<path d="M163.841 36.5657C163.841 36.5657 164.978 37.6057 165.481 37.4221C165.983 37.2386 167.622 37.4222 167.622 38.6456C167.622 39.8691 166.67 41.6431 165.454 41.4595C164.238 41.276 162.44 38.2785 162.44 38.2785L163.841 36.5352V36.5657Z" fill="#EDC8C8"/>
<path d="M165.163 36.1994C163.233 37.0253 161.884 39.6251 161.884 39.6251C161.884 39.6251 153 32.4067 153 30.2963C153 28.1858 157.839 15.6455 157.839 15.6455L157.892 22.8027C157.892 22.8027 158.024 26.5954 158.024 28.6141C158.024 30.6328 165.163 36.1994 165.163 36.1994Z" fill="#E46060"/>
<path d="M161.118 76.0527L160.642 77.7656C160.642 77.7656 158.579 77.582 158.579 79.0196C158.579 80.4572 159.346 80.4265 159.346 80.4265H162.757L162.228 76.0527H161.118Z" fill="#941400"/>
<path d="M178.199 76.0527L177.723 77.7656C177.723 77.7656 175.661 77.582 175.661 79.0196C175.661 80.4572 176.428 80.4265 176.428 80.4265H179.839L179.31 76.0527H178.199Z" fill="#941400"/>
<path d="M468.767 11.7617H475.43L475.033 17.5119L469.745 17.8178L468.767 11.7617Z" fill="#E46060"/>
<path d="M480.243 11.7606C480.243 11.7606 482.252 11.1489 483.495 13.2899C484.738 15.4309 491.348 26.9008 491.613 29.7453C491.877 32.5898 491.613 40.5728 491.613 40.5728C491.613 40.5728 488.598 40.1446 487.99 40.8481C487.99 40.8481 487.858 31.9475 487.276 30.5099C486.695 29.0724 481.115 18.7648 481.115 18.7648C481.115 18.7648 479.396 14.7274 480.269 11.7606H480.243Z" fill="#E46060"/>
<path d="M461.865 15.6159C461.865 15.6159 462.817 12.0067 464.271 11.8232C465.726 11.6397 469.375 11.8232 469.375 11.8232C469.375 11.8232 469.93 17.3593 472.019 17.4511C474.108 17.5428 474.743 11.7314 474.743 11.7314H480.269C480.269 11.7314 479.555 15.7994 481.38 18.0934C483.204 20.3873 484.5 20.9685 484.5 20.9685V37.6074L461.892 38.0662V15.6159H461.865Z" fill="#941400"/>
<path d="M462.765 38.0653L463.108 76.0533H466.652C466.652 76.0533 466.519 42.4085 473.474 42.4085C480.428 42.4085 481.063 76.0533 481.063 76.0533H484.024L484.474 37.6064L462.765 38.0653Z" fill="#DA2828"/>
<path d="M488.599 39.8375C488.599 39.8375 488.651 41.5197 488.202 41.8561C487.752 42.1926 486.906 43.8442 487.752 44.5783C488.599 45.3124 490.397 45.5265 491.005 44.2725C491.613 43.0184 490.635 39.5928 490.635 39.5928L488.599 39.8375Z" fill="#EDC8C8"/>
<path d="M467.18 1.36167C467.18 1.36167 464.8 6.77541 466.44 8.70234C468.079 10.6293 470.723 10.5987 470.723 10.5987V11.7304H474.266V7.72361C474.266 7.72361 471.966 1.72868 467.18 1.33105V1.36167Z" fill="#EDC8C8"/>
<path d="M467.18 1.36156C467.18 1.36156 467.101 -0.0759945 468.899 0.0157641C470.697 0.107523 475.245 -0.565392 475.483 2.00385C475.721 4.57309 476.224 8.85518 475.483 8.85518C474.743 8.85518 474.24 7.7235 474.24 7.7235C474.24 7.7235 472.099 2.30971 467.154 1.33095L467.18 1.36156Z" fill="#5B5858"/>
<path d="M471.649 39.0439H470.274V79.3872H471.649V39.0439Z" fill="#2A0000"/>
<path d="M467.841 36.5657C467.841 36.5657 468.978 37.6057 469.481 37.4221C469.983 37.2386 471.623 37.4222 471.623 38.6456C471.623 39.8691 470.671 41.6431 469.454 41.4595C468.238 41.276 466.44 38.2785 466.44 38.2785L467.841 36.5352V36.5657Z" fill="#EDC8C8"/>
<path d="M469.163 36.1994C467.233 37.0253 465.885 39.6251 465.885 39.6251C465.885 39.6251 457 32.4067 457 30.2963C457 28.1858 461.839 15.6455 461.839 15.6455L461.892 22.8027C461.892 22.8027 462.024 26.5954 462.024 28.6141C462.024 30.6328 469.163 36.1994 469.163 36.1994Z" fill="#E46060"/>
<path d="M465.118 76.0527L464.642 77.7656C464.642 77.7656 462.579 77.582 462.579 79.0196C462.579 80.4572 463.346 80.4265 463.346 80.4265H466.757L466.228 76.0527H465.118Z" fill="#941400"/>
<path d="M482.2 76.0527L481.724 77.7656C481.724 77.7656 479.661 77.582 479.661 79.0196C479.661 80.4572 480.428 80.4265 480.428 80.4265H483.839L483.31 76.0527H482.2Z" fill="#941400"/>
</svg>
